<?xml version="1.0" encoding="UTF-8"?>
<svg version="1.1" xmlns="http://www.w3.org/2000/svg" width="600" height="315">
<path d="M0 0 C0.91417694 -0.0065712 1.82835388 -0.0131424 2.77023315 -0.01991272 C5.79970379 -0.03964424 8.82912483 -0.05130895 11.85864258 -0.0612793 C12.89399958 -0.06535482 13.92935658 -0.06943035 14.99608803 -0.07362938 C20.47769598 -0.09449099 25.9592789 -0.10879148 31.44091797 -0.11816406 C37.09568109 -0.12921962 42.75004974 -0.16360965 48.40467358 -0.20333576 C52.75851662 -0.22951619 57.11226596 -0.23785726 61.4661808 -0.24144554 C63.55011975 -0.24630896 65.63405458 -0.25791592 67.71791649 -0.27648354 C70.64038447 -0.30090154 73.56183566 -0.29990478 76.484375 -0.29296875 C77.33921982 -0.30577881 78.19406464 -0.31858887 79.07481384 -0.33178711 C87.07052604 -0.26290334 93.21816963 2.72139398 99.06567383 8.17700195 C100.87426758 10.5871582 100.87426758 10.5871582 102.50317383 13.23950195 C103.39649414 14.69356445 103.39649414 14.69356445 104.30786133 16.17700195 C106.49217758 19.90490169 108.56350835 23.68356254 110.60083008 27.4934082 C112.02374371 30.10018599 113.52255179 32.63986884 115.06567383 35.17700195 C117.71113103 39.5309836 120.14769876 43.97492318 122.56567383 48.45825195 C124.00740004 51.07138071 125.51608931 53.6266441 127.06567383 56.17700195 C129.63369906 60.41059393 132.03810487 64.70475085 134.34301758 69.0871582 C135.64024917 71.41393868 136.97515888 73.58555894 138.44458008 75.7980957 C144.19811476 84.68544196 147.68096181 92.95391724 145.76928711 103.67553711 C143.4670942 111.86022433 138.44425243 119.10412809 133.9309082 126.21606445 C131.46861493 130.12479389 129.13116286 134.10123808 126.79492188 138.08618164 C125.22297329 140.7654249 123.63158327 143.43227155 122.03833008 146.09887695 C119.39862896 150.55440678 116.90769916 155.08042522 114.45800781 159.64282227 C112.59557334 163.03262935 110.58545361 166.32385555 108.57348633 169.6262207 C106.94867124 172.37493638 105.44202473 175.17163983 103.94067383 177.98950195 C99.5990032 185.94550148 94.84139021 191.25176316 86.06567383 194.17700195 C83.0801897 194.28927408 80.117466 194.34472102 77.13134766 194.35400391 C76.21717072 194.3605751 75.30299377 194.3671463 74.3611145 194.37391663 C71.33164386 194.39364815 68.30222283 194.40531285 65.27270508 194.4152832 C64.23734808 194.41935873 63.20199108 194.42343426 62.13525963 194.42763329 C56.65365168 194.44849489 51.17206875 194.46279539 45.69042969 194.47216797 C40.03566657 194.48322352 34.38129791 194.51761356 28.72667408 194.55733967 C24.37283103 194.58352009 20.01908169 194.59186116 15.66516685 194.59544945 C13.58122791 194.60031286 11.49729307 194.61191982 9.41343117 194.63048744 C6.49096319 194.65490544 3.56951199 194.65390868 0.64697266 194.64697266 C-0.63529457 194.66618774 -0.63529457 194.66618774 -1.94346619 194.68579102 C-9.87917127 194.61742421 -16.17550368 191.66587964 -21.93432617 186.17700195 C-23.93432617 183.3137207 -23.93432617 183.3137207 -25.93432617 179.86450195 C-26.30968506 179.22206543 -26.68504395 178.57962891 -27.07177734 177.91772461 C-28.37296497 175.67839869 -29.65533161 173.42907497 -30.93432617 171.17700195 C-31.42497559 170.31510254 -31.915625 169.45320312 -32.42114258 168.56518555 C-35.16128678 163.74448227 -37.88762403 158.9161466 -40.60620117 154.08325195 C-43.22566871 149.42844901 -45.86058835 144.78290706 -48.51416016 140.14746094 C-49.50056609 138.42072268 -50.48187849 136.69106448 -51.45800781 134.95849609 C-53.97828187 130.50148869 -56.57848253 126.13380746 -59.35229492 121.8293457 C-65.56973438 112.02289043 -71.30866401 102.64066517 -68.73803711 90.69702148 C-65.93493494 81.90795084 -60.66219438 74.02349408 -55.82397461 66.24291992 C-53.02823519 61.7068869 -50.42526906 57.06812027 -47.80932617 52.42700195 C-46.83288277 50.7217603 -45.85502212 49.01732938 -44.87573242 47.3137207 C-42.84941077 43.78205412 -40.83818863 40.2423136 -38.83666992 36.6965332 C-35.90246611 31.50382843 -32.93108841 26.33382359 -29.93432617 21.17700195 C-29.52053711 20.45770508 -29.10674805 19.7384082 -28.68041992 18.99731445 C-21.42165868 6.49212181 -14.87451254 0.04624012 0 0 Z M33.25317383 34.92700195 C30.0070145 38.26590869 29.93856246 40.93046823 29.92041016 45.39526367 C29.9140303 46.46001923 29.90765045 47.52477478 29.90107727 48.62179565 C29.89996445 49.77181061 29.89885162 50.92182556 29.89770508 52.10668945 C29.89437668 53.28917267 29.89104828 54.47165588 29.88761902 55.68997192 C29.88255265 58.19329438 29.8802106 60.6966236 29.88037109 63.19995117 C29.87818658 67.02965434 29.86003288 70.8590686 29.84106445 74.6887207 C29.8381301 77.1197093 29.83614558 79.55069927 29.83520508 81.98168945 C29.82801956 83.12765594 29.82083405 84.27362244 29.81343079 85.45431519 C29.81650742 86.52537506 29.81958405 87.59643494 29.82275391 88.69995117 C29.82132889 89.6391037 29.81990387 90.57825623 29.81843567 91.54586792 C30.09319288 94.46986257 30.72496022 96.56642426 32.06567383 99.17700195 C35.58391894 101.5224987 36.92343077 101.75691598 41.06567383 101.17700195 C43.63029224 99.52328395 44.6354556 98.77754676 46.06567383 96.17700195 C46.81731347 91.83615272 46.74195102 87.5377364 46.69458008 83.1418457 C46.69699203 81.87103653 46.69940399 80.60022736 46.70188904 79.29090881 C46.70091003 76.60616075 46.69010525 73.92364522 46.66259766 71.23925781 C46.6284789 67.80344816 46.63454849 64.36913106 46.65326023 60.93324947 C46.66638322 57.64852814 46.64811375 54.36403478 46.63208008 51.0793457 C46.63951988 49.23082253 46.63951988 49.23082253 46.64710999 47.34495544 C46.63127365 46.20019241 46.61543732 45.05542938 46.59912109 43.87597656 C46.59292252 42.86957626 46.58672394 41.86317596 46.58033752 40.82627869 C45.92564245 37.45617807 44.72367902 36.28623797 42.06567383 34.17700195 C38.15068056 32.84423829 36.8054373 32.71670468 33.25317383 34.92700195 Z M-2.93432617 52.17700195 C-3.53374023 52.75708008 -4.1331543 53.3371582 -4.75073242 53.93481445 C-15.30660556 64.84491152 -19.57404595 79.16593755 -20.05932617 93.99731445 C-19.60437936 107.61728465 -15.58950741 119.56179089 -6.93432617 130.17700195 C-6.4625293 130.80993164 -5.99073242 131.44286133 -5.50463867 132.0949707 C2.94776986 142.91118839 16.73856559 149.55549976 30.10083008 151.65356445 C46.62929314 153.38071855 61.30094432 149.56554115 74.46801758 139.3918457 C87.4506953 128.3224047 94.88706457 113.97171029 96.34301758 96.9309082 C96.82492437 80.873774 91.53990489 64.73491175 80.55957031 52.83740234 C80.04595947 52.31009521 79.53234863 51.78278809 79.00317383 51.23950195 C78.52114502 50.73733154 78.03911621 50.23516113 77.54248047 49.71777344 C73.9319191 46.27870918 71.00193136 45.34762349 66.06567383 45.17700195 C63.12715578 46.56893155 62.31779225 47.53830196 61.12817383 50.55200195 C61.04243014 54.15323705 61.82687232 55.32761822 64.06567383 58.17700195 C65.32356222 59.25479619 66.59602017 60.31569043 67.87817383 61.36450195 C76.19462521 68.42737059 80.47952067 78.20105573 81.38208008 88.94262695 C81.9996363 103.53414719 77.66899619 115.02369504 67.94067383 125.86450195 C59.74768786 133.62437853 48.97678055 137.10922013 37.87426758 137.2043457 C24.26706546 136.57780393 14.06426168 131.84262218 4.81567383 121.86450195 C-3.69785752 111.31718256 -6.03922547 99.43579358 -4.93432617 86.17700195 C-2.74820399 74.11182128 3.20883038 65.02677509 12.71020508 57.4387207 C14.28301583 56.14180565 14.28301583 56.14180565 15.19067383 53.61450195 C15.01740905 50.23583882 14.32011224 48.71324517 12.06567383 46.17700195 C4.92119221 43.37524445 1.75583893 47.25465046 -2.93432617 52.17700195 Z " fill="#6CB23E" transform="translate(73.934326171875,60.822998046875)"/>
<path d="M0 0 C3.67633256 2.01359294 6.46122535 4.17836922 9.3125 7.25 C9.93125 5.6103125 9.93125 5.6103125 10.5625 3.9375 C11.95778538 0.73158846 13.06285965 -1.17160326 16.3125 -2.75 C20.17571799 -3.421864 21.9682012 -2.92735311 25.46240234 -1.12744141 C27.78575587 0.91794863 28.28411232 2.09912782 28.86407471 5.18145752 C29.07666744 9.05793113 29.09400914 12.90959296 29.0390625 16.7890625 C29.03802375 18.23530068 29.03906514 19.6815417 29.04208374 21.1277771 C29.0419045 24.15934431 29.0211085 27.18984562 28.98486328 30.22119141 C28.93972958 34.07779525 28.93835727 37.93282679 28.95189857 41.78962135 C28.95863745 44.7788959 28.94520432 47.76782239 28.92564011 50.75703049 C28.91801883 52.17695662 28.91560478 53.59692181 28.9188118 55.01686478 C28.92306699 66.29457071 27.48257626 76.51013787 20.12109375 85.46875 C11.63724754 93.82433072 0.33959714 96.32682637 -11.25 96.5625 C-22.16602637 96.24761462 -36.05765786 95.1144189 -44.03125 86.80859375 C-45.6875 84.25 -45.6875 84.25 -45.6875 80.625 C-44.6875 77.25 -44.6875 77.25 -43 75.3125 C-39.86235303 73.87087842 -38.1391836 73.79411726 -34.6875 74.25 C-32.34179861 75.15564471 -30.09412633 76.17201975 -27.8359375 77.27734375 C-22.95168366 79.48857867 -18.21321975 79.49784657 -12.9375 79.5625 C-12.1640625 79.59150391 -11.390625 79.62050781 -10.59375 79.65039062 C-4.8207546 79.71335115 -0.473553 78.55469007 4.3125 75.25 C6.01062138 73.4578501 6.01062138 73.4578501 6.8125 71.5 C7.3075 70.4275 7.8025 69.355 8.3125 68.25 C7.9825 67.92 7.6525 67.59 7.3125 67.25 C6.755625 67.65992188 6.19875 68.06984375 5.625 68.4921875 C-2.37328791 74.13962727 -9.89253878 76.46796269 -19.6875 74.9375 C-29.67384225 72.75298763 -37.35614826 67.66328338 -43.33203125 59.3984375 C-49.68653727 49.3264539 -50.16240321 35.94441701 -48 24.5 C-45.16474206 14.03284913 -39.80598454 6.50628625 -30.43359375 0.90234375 C-20.66570559 -4.11651591 -9.92613764 -4.85305005 0 0 Z M-25.5625 20.125 C-30.43902103 27.29635446 -30.46701551 34.82930782 -29.6875 43.25 C-27.98311388 49.17389339 -24.33507114 54.1942417 -18.90625 57.25390625 C-13.73939021 59.54003667 -9.12053769 59.80500555 -3.6875 58.25 C2.2777405 55.50493358 6.41241037 51.85016983 9.5 46 C11.78729343 38.25839148 11.79305647 31.66406206 8.3125 24.25 C4.68112993 18.72807128 0.80798691 15.04185846 -5.6875 13.25 C-13.55002383 12.12678231 -20.18637975 14.15153306 -25.5625 20.125 Z " fill="#6DB33F" transform="translate(561.6875,63.75)"/>
<path d="M0 0 C3.15052314 2.2385296 3.87610406 3.46311758 4.75 7.25 C4.87375 8.61125 4.87375 8.61125 5 10 C5.556875 9.45730469 6.11375 8.91460937 6.6875 8.35546875 C14.777417 0.77117157 20.52361396 -1.67134646 31.6953125 -1.3359375 C41.99446935 -0.28897829 49.18338429 4.32207906 56 12 C58.01798739 14.88013223 59.64214532 17.75812196 61 21 C61.54333984 22.28970703 61.54333984 22.28970703 62.09765625 23.60546875 C64.95056262 34.33783081 64.70116429 48.59730894 59.609375 58.5234375 C53.82107978 67.43066849 47.43390983 72.54341625 37.5625 76.3125 C29.33861166 77.89956617 21.70740102 77.40958305 14 74 C12.35771496 72.84717774 10.75353254 71.63821589 9.19140625 70.37890625 C8.00526733 69.43059937 8.00526733 69.43059937 6.79516602 68.46313477 C6.20276123 67.98030029 5.61035645 67.49746582 5 67 C4.99383667 68.19544434 4.99383667 68.19544434 4.98754883 69.41503906 C4.95464655 73.02744623 4.88400344 76.63815939 4.8125 80.25 C4.80669922 81.50425781 4.80089844 82.75851563 4.79492188 84.05078125 C4.75141602 85.85869141 4.75141602 85.85869141 4.70703125 87.703125 C4.6913208 88.81333008 4.67561035 89.92353516 4.65942383 91.06738281 C3.7966136 94.90450848 2.25875742 95.92999494 -1 98 C-3.0625 98.56640625 -3.0625 98.56640625 -5 98.5625 C-5.639375 98.58441406 -6.27875 98.60632813 -6.9375 98.62890625 C-10.33020732 97.59438754 -11.79602694 95.73935142 -14 93 C-14.48943989 89.95481817 -14.67569252 87.47313533 -14.63110352 84.43359375 C-14.63825882 83.58258087 -14.64541412 82.73156799 -14.65278625 81.85476685 C-14.66966182 79.04846114 -14.65027786 76.24375554 -14.62890625 73.4375 C-14.62973506 71.48364123 -14.63219488 69.52978254 -14.63621521 67.57592773 C-14.63907243 63.48367289 -14.62437933 59.39196559 -14.59692383 55.29980469 C-14.5628413 50.05719965 -14.56886004 44.81557365 -14.5875864 39.57292175 C-14.59816056 35.53910173 -14.58921476 31.50550909 -14.57420158 27.47171021 C-14.56902238 25.5388354 -14.5694984 23.60593683 -14.57574654 21.67306519 C-14.58120375 18.97032709 -14.56080791 16.2689852 -14.53344727 13.56640625 C-14.53997314 12.76937286 -14.54649902 11.97233948 -14.55322266 11.15115356 C-14.48935102 7.43618483 -14.13120162 5.2113126 -12.15415955 2.02709961 C-8.21905157 -1.6759018 -5.04166275 -1.14985291 0 0 Z M8.5625 22.875 C4.29796313 29.30133811 3.06821957 35.3617012 4 43 C6.18390707 50.46069875 10.04361954 55.51435797 16.875 59.3125 C21.53901182 61.44835588 25.27445008 61.83790654 30.26171875 60.3046875 C36.93896497 57.67793609 40.91060546 53.88290181 43.8125 47.25 C46.33115841 39.63612459 45.5601021 32.53714517 42.3359375 25.265625 C39.68777041 20.7745814 36.03496896 18.14793121 31.5625 15.625 C22.61995226 13.4438908 14.35384511 15.51956899 8.5625 22.875 Z " fill="#6DB33F" transform="translate(297,62)"/>
<path d="M0 0 C3.11905047 2.57660691 4.7181368 4.1544104 6 8 C6.40089844 7.60167969 6.80179687 7.20335938 7.21484375 6.79296875 C13.06982414 1.33628634 18.86754706 -1.04410691 26.875 -1.4375 C35.05812151 -1.10712553 41.82449703 1.23147212 47.5 7.25 C53.88277639 14.66051157 54.45955939 22.3985444 54.43359375 31.76171875 C54.4388356 32.87053909 54.44407745 33.97935944 54.44947815 35.1217804 C54.45587449 37.45398117 54.45459248 39.78621432 54.44604492 42.1184082 C54.43750134 45.68694084 54.46638579 49.25388943 54.49804688 52.82226562 C54.49965823 55.09374952 54.49908261 57.36523625 54.49609375 59.63671875 C54.50732773 60.70137863 54.51856171 61.76603851 54.53013611 62.86296082 C54.46094154 70.20111314 54.46094154 70.20111314 52.18383789 74.14770508 C49.12807631 76.73955115 46.97158624 77 43 77 C39.42612398 75.41161066 38.18910428 74.28365642 36 71 C35.7822637 68.13499023 35.67494322 65.35920684 35.65625 62.4921875 C35.6416272 61.65213165 35.62700439 60.81207581 35.61193848 59.94656372 C35.56543117 57.25609117 35.5312759 54.56569009 35.5 51.875 C35.45855223 48.35130203 35.40466552 44.82809665 35.34375 41.3046875 C35.3384729 40.50747284 35.3331958 39.71025818 35.32775879 38.8888855 C35.21177506 32.22739677 34.76158182 25.64237273 31 20 C26.77188361 17.18125574 23.03277705 16.71734793 18 17 C14.07973579 17.96364037 10.36767855 19.63540417 8 23 C5.78169809 28.25783661 5.72015696 32.99497951 5.7265625 38.59765625 C5.70628378 40.46940713 5.6854332 42.34115189 5.6640625 44.21289062 C5.64142901 47.1446656 5.62497275 50.07619816 5.61914062 53.00805664 C5.60961939 55.85086087 5.57586239 58.69259255 5.5390625 61.53515625 C5.54410797 62.40922623 5.54915344 63.2832962 5.55435181 64.18385315 C5.48868513 68.24927888 5.31437266 70.47645348 3.18115234 74.02905273 C0.1507303 76.76742269 -1.95707447 77 -6 77 C-8.92346557 75.63571607 -10.72750909 74.27249091 -13 72 C-13.28088379 69.21159363 -13.28088379 69.21159363 -13.32226562 65.61010742 C-13.33219543 64.95460403 -13.34212524 64.29910065 -13.35235596 63.62373352 C-13.38161132 61.45093613 -13.3952055 59.27843089 -13.40625 57.10546875 C-13.41775351 55.59572847 -13.42926898 54.08598827 -13.4407959 52.57624817 C-13.46182034 49.40783323 -13.4735021 46.23951982 -13.48046875 43.07104492 C-13.49142962 39.01521725 -13.53945842 34.96073559 -13.59641266 30.9053297 C-13.63370807 27.78514219 -13.64407875 24.6652772 -13.6471405 21.54488564 C-13.65318712 20.05012986 -13.66922346 18.55537935 -13.69551086 17.06084251 C-13.88518253 5.44649417 -13.88518253 5.44649417 -11.74511719 1.94937134 C-7.87862404 -1.5063371 -4.77227582 -1.56183572 0 0 Z " fill="#6DB33F" transform="translate(454,62)"/>
<path d="M0 0 C2.7109375 1.87890625 2.7109375 1.87890625 5 5 C5.60275676 8.46058511 5.47323589 11.81340324 5.3125 15.3125 C5.28994141 16.24384766 5.26738281 17.17519531 5.24414062 18.13476562 C5.18542078 20.4248396 5.10336858 22.71157875 5 25 C6.0725 24.360625 7.145 23.72125 8.25 23.0625 C14.82386937 19.32402931 22.1016452 18.7850842 29.47265625 20.61328125 C36.12130899 23.20203626 40.61309255 27.70883183 44.0625 33.91015625 C48.1044883 43.37385001 47.61656552 54.23633422 45 64 C41.91855444 71.55786984 37.31888447 76.39378602 30 80 C22.41755646 82.4425658 15.06830859 81.29041952 8 78 C5.5 76.3125 5.5 76.3125 4 75 C3.71125 75.804375 3.4225 76.60875 3.125 77.4375 C2 80 2 80 0 81 C-6.1726283 81.45723173 -6.1726283 81.45723173 -9.375 79.6875 C-12.55886378 76.38117992 -12.13644683 72.75785664 -12.16113281 68.40478516 C-12.16609772 67.73938217 -12.17106262 67.07397919 -12.17617798 66.38841248 C-12.19077477 64.1886186 -12.19759727 61.98889683 -12.203125 59.7890625 C-12.20887831 58.25833128 -12.21463602 56.72760008 -12.22039795 55.1968689 C-12.23090074 51.98736231 -12.23674819 48.77788072 -12.24023438 45.56835938 C-12.24571894 41.46031743 -12.26974894 37.35260696 -12.29820633 33.24466896 C-12.31685016 30.08247926 -12.32203922 26.92036914 -12.32357025 23.75812912 C-12.32659316 22.24389203 -12.33460953 20.72965622 -12.34775543 19.21547318 C-12.36485381 17.09472834 -12.36292704 14.97479013 -12.35644531 12.85400391 C-12.36009094 11.64837799 -12.36373657 10.44275208 -12.36749268 9.20059204 C-11.96423025 5.68847164 -11.10936389 3.80874988 -9 1 C-5.86128812 -0.56935594 -3.46144178 -0.35201103 0 0 Z M10 37 C5.66831003 42.38534428 5.38997282 47.13986878 5.609375 53.96484375 C6.27212186 59.11438688 8.24844772 61.24844772 11.875 64.875 C14.8495666 66.44977055 16.66972728 66.46623818 20 66 C24.20649153 64.1029548 26.27129936 62.16359071 27.9375 57.9375 C29.56461481 52.06826445 29.62194976 45.68424787 27.13671875 40.0390625 C25.40564653 37.29875513 23.7082179 35.8054786 21 34 C16.36402686 33.49608988 13.62881924 34.03964746 10 37 Z " fill="#6DB33F" transform="translate(236,174)"/>
<path d="M0 0 C2.70703125 2.046875 2.70703125 2.046875 4.70703125 5.046875 C4.48910022 11.14894397 4.48910022 11.14894397 2.01953125 13.984375 C-1.11811572 15.42599658 -2.84128515 15.50275774 -6.29296875 15.046875 C-8.64443624 14.12456796 -10.91175463 13.0827825 -13.1953125 12.00390625 C-17.79564391 9.90505859 -22.28209538 9.68895547 -27.29296875 10.046875 C-30.25806408 11.05729718 -30.25806408 11.05729718 -32.29296875 13.046875 C-33.20988312 15.50227567 -33.20988312 15.50227567 -32.29296875 18.046875 C-27.70488868 21.69436276 -23.11112616 23.22477228 -17.54296875 24.859375 C-8.79550607 27.60923566 -2.27433604 31.16030217 4.33203125 37.609375 C6.85153297 43.9081293 6.73738557 50.96409602 5.08203125 57.5234375 C2.37314116 63.78774584 -2.9698762 67.38532872 -8.91796875 70.359375 C-22.49923886 74.2907953 -35.91331823 71.38553623 -48.29296875 65.046875 C-53.06368285 61.86860148 -53.06368285 61.86860148 -53.921875 58.79296875 C-53.74430276 52.61972201 -53.74430276 52.61972201 -51.66796875 49.984375 C-48.43870137 48.70966419 -46.77984488 48.53030076 -43.29296875 49.046875 C-40.76659122 50.20892259 -38.32795052 51.50212375 -35.8671875 52.796875 C-28.94797784 56.15673402 -21.79974979 56.80649853 -14.29296875 55.046875 C-12.00366639 53.16548741 -12.00366639 53.16548741 -11.91796875 50.109375 C-11.96206851 47.00625822 -11.96206851 47.00625822 -14.02246094 45.45629883 C-16.34783638 44.01281577 -18.37753782 43.20939448 -20.99609375 42.43359375 C-21.89457031 42.15451172 -22.79304688 41.87542969 -23.71875 41.58789062 C-25.58401099 41.0241845 -27.45118461 40.46676428 -29.3203125 39.91601562 C-37.62508347 37.31559162 -44.32964614 33.39259246 -49.29296875 26.046875 C-51.23955464 20.20711732 -51.31804754 13.4810832 -48.79296875 7.796875 C-45.2177275 1.70896421 -40.17058267 -2.61449721 -33.48046875 -4.890625 C-22.10080094 -7.66192919 -10.1290766 -6.00775599 0 0 Z " fill="#6DB33F" transform="translate(272.29296875,66.953125)"/>
<path d="M0 0 C6.54220596 6.21889927 9.49867347 15.32424899 9.78515625 24.125 C9.48691765 32.90514427 7.29019341 40.08603792 1.6875 47 C-5.78297225 53.57401558 -13.51456963 55.43761744 -23.3125 55.25390625 C-31.62353065 54.55049871 -38.29229409 51.23091795 -44 45.125 C-50.7741592 35.97073081 -51.49621552 26.34519444 -49.921875 15.24609375 C-48.08500625 7.72199676 -43.63475947 1.87620943 -37.1875 -2.4140625 C-25.02010268 -8.82038154 -11.46498057 -6.92225242 0 0 Z M-30.3125 13 C-33.26105028 18.62905054 -33.25458995 25.99611773 -31.8125 32.125 C-30.24245667 36.26420515 -28.1368267 38.8270871 -24.3125 41 C-20.51494451 41.47469444 -18.10440675 41.32396185 -14.5625 39.875 C-10.91408113 36.83465094 -9.01981621 32.66828701 -8.3125 28 C-7.79749998 21.3049997 -9.01252302 15.71815461 -13.375 10.5625 C-19.52166268 5.60551397 -25.23952744 7.57309912 -30.3125 13 Z " fill="#6DB33F" transform="translate(406.3125,200)"/>
<path d="M0 0 C6.54220596 6.21889927 9.49867347 15.32424899 9.78515625 24.125 C9.48691765 32.90514427 7.29019341 40.08603792 1.6875 47 C-5.78297225 53.57401558 -13.51456963 55.43761744 -23.3125 55.25390625 C-31.62353065 54.55049871 -38.29229409 51.23091795 -44 45.125 C-50.7741592 35.97073081 -51.49621552 26.34519444 -49.921875 15.24609375 C-48.08500625 7.72199676 -43.63475947 1.87620943 -37.1875 -2.4140625 C-25.02010268 -8.82038154 -11.46498057 -6.92225242 0 0 Z M-30.3125 13 C-33.26105028 18.62905054 -33.25458995 25.99611773 -31.8125 32.125 C-30.24245667 36.26420515 -28.1368267 38.8270871 -24.3125 41 C-20.51494451 41.47469444 -18.10440675 41.32396185 -14.5625 39.875 C-10.91408113 36.83465094 -9.01981621 32.66828701 -8.3125 28 C-7.79749998 21.3049997 -9.01252302 15.71815461 -13.375 10.5625 C-19.52166268 5.60551397 -25.23952744 7.57309912 -30.3125 13 Z " fill="#6DB33F" transform="translate(339.3125,200)"/>
<path d="M0 0 C2.3125 1.9375 2.3125 1.9375 4 4 C4.66 4.66 5.32 5.32 6 6 C6.66 5.401875 7.32 4.80375 8 4.1875 C13.88232953 -0.10169862 18.7853977 -1.46223673 26.01953125 -0.6171875 C28.44839405 0.13973621 29.44993582 0.99376077 31 3 C32.30425442 7.97246998 32.68165016 9.79575139 30.125 14.3125 C27.25761114 17.27573473 24.09960631 18.18327344 20.2109375 19.30078125 C14.28957453 21.17343844 10.9286851 24.66560928 8 30 C6.29653206 35.02608883 5.74107537 39.4317695 5.69140625 44.7265625 C5.66626748 46.1849002 5.64086918 47.64323344 5.61523438 49.1015625 C5.58644285 51.3704329 5.56238286 53.63922662 5.54370117 55.90820312 C5.52200466 58.11886323 5.48259494 60.32869205 5.44140625 62.5390625 C5.42795166 63.85084473 5.41449707 65.16262695 5.40063477 66.51416016 C4.9783428 70.18843477 4.22556449 72.08253798 2 75 C-0.93187013 76.74327413 -2.64905716 77.0143242 -6.0625 76.875 C-9.43183675 75.87136778 -10.79520819 74.69474555 -13 72 C-14.37160572 69.25678857 -14.14237064 67.04780148 -14.16113281 63.97729492 C-14.17074036 62.71225632 -14.1803479 61.44721771 -14.19024658 60.1438446 C-14.19509487 58.75605448 -14.19937362 57.36826227 -14.203125 55.98046875 C-14.20887714 54.56040952 -14.21463486 53.14035032 -14.22039795 51.72029114 C-14.23090925 48.74020017 -14.23675077 45.76013619 -14.24023438 42.7800293 C-14.24571334 38.96677077 -14.2697276 35.15387035 -14.29820633 31.34072399 C-14.31685967 28.40585805 -14.32203978 25.47107781 -14.32357025 22.53615761 C-14.32659226 21.13077147 -14.33460559 19.72538669 -14.34775543 18.32005882 C-14.36486702 16.35040764 -14.36108348 14.38060872 -14.35644531 12.41088867 C-14.36009094 11.29107101 -14.36373657 10.17125336 -14.36749268 9.01750183 C-13.87373849 4.96326004 -12.48015327 2.16297757 -9.25 -0.375 C-5.85887913 -1.31697802 -3.39008797 -0.84752199 0 0 Z " fill="#6DB33F" transform="translate(379,62)"/>
<path d="M0 0 C4.47441927 0.79900344 5.72347197 2.06595304 8.5 5.625 C8.86771245 8.4637401 8.98630804 10.64320151 8.8125 13.4375 C8.78994141 14.13037109 8.76738281 14.82324219 8.74414062 15.53710938 C8.68562661 17.23401573 8.5959548 18.92979861 8.5 20.625 C9.593125 20.58117187 10.68625 20.53734375 11.8125 20.4921875 C15.5 20.625 15.5 20.625 18.5 22.75 C20.5 25.625 20.5 25.625 20.625 28.75 C19.5 31.625 19.5 31.625 17.3125 33.5 C14.164166 34.7593336 11.8581305 34.70860491 8.5 34.625 C8.63894957 38.70859816 8.78734938 42.79179956 8.9375 46.875 C8.97681641 48.03386719 9.01613281 49.19273437 9.05664062 50.38671875 C9.09853516 51.50175781 9.14042969 52.61679688 9.18359375 53.765625 C9.22025146 54.79204102 9.25690918 55.81845703 9.29467773 56.87597656 C9.47282128 59.26110887 9.82777363 61.33799499 10.5 63.625 C11.17546875 63.57859375 11.8509375 63.5321875 12.546875 63.484375 C19.79883139 63.19094324 19.79883139 63.19094324 23.125 65.25 C24.90841979 68.33045237 25.01186027 70.11510104 24.5 73.625 C23.00909304 76.78221473 21.78557195 77.50348002 18.5625 78.875 C10.9209416 80.65587166 3.18477191 80.64056264 -3.87890625 77.0859375 C-7.37599569 73.93434364 -8.43876835 70.32510381 -8.84057617 65.73095703 C-8.84010716 64.28148872 -8.82351317 62.83195902 -8.79296875 61.3828125 C-8.78872391 60.61444061 -8.78447906 59.84606873 -8.78010559 59.05441284 C-8.76341826 56.61924015 -8.72578641 54.1849192 -8.6875 51.75 C-8.67244023 50.09115785 -8.65875409 48.43230263 -8.64648438 46.7734375 C-8.61354759 42.7236341 -8.56183594 38.67446106 -8.5 34.625 C-9.923125 34.439375 -9.923125 34.439375 -11.375 34.25 C-14.5 33.625 -14.5 33.625 -16.5 31.625 C-16.77920581 28.693339 -16.97713387 26.47034707 -16.5 23.625 C-14.75 21.625 -14.75 21.625 -12.5 20.625 C-11.18 20.625 -9.86 20.625 -8.5 20.625 C-8.55800781 19.60019531 -8.61601562 18.57539063 -8.67578125 17.51953125 C-8.72269957 16.15889989 -8.76819752 14.79821904 -8.8125 13.4375 C-8.85439453 12.76396484 -8.89628906 12.09042969 -8.93945312 11.39648438 C-9.03527567 7.46776002 -8.64206269 5.80710073 -6.19921875 2.67578125 C-3.5 0.625 -3.5 0.625 0 0 Z " fill="#6DB33F" transform="translate(436.5,175.375)"/>
<path d="M0 0 C2.42666447 1.34105142 3.68529104 2.08302487 4.59248352 4.72633362 C5.09654124 7.53863484 5.13515168 10.20786109 5.14526367 13.06616211 C5.15164352 14.29100815 5.15802338 15.51585419 5.16459656 16.77781677 C5.16570938 18.09766068 5.1668222 19.41750458 5.16796875 20.77734375 C5.17118376 22.14970433 5.17454802 23.52206457 5.17805481 24.89442444 C5.18403596 27.76841018 5.18589572 30.6423659 5.18530273 33.51635742 C5.1852011 37.19271895 5.19885946 40.86888743 5.21607494 44.54520321 C5.22721122 47.3788389 5.22922145 50.21242812 5.22869301 53.04608345 C5.2304415 55.05848242 5.24127044 57.07086688 5.25224304 59.08323669 C5.24916641 60.31123489 5.24608978 61.53923309 5.24291992 62.80444336 C5.24434494 63.88269882 5.24576996 64.96095428 5.24723816 66.07188416 C4.98836585 69.13778673 4.41396081 71.27405217 3 74 C-0.23583892 76.20625381 -2.19679818 77.01606404 -6.125 76.9375 C-9.40919303 75.86656749 -10.83034119 74.65180522 -13 72 C-14.3675413 69.26491741 -14.1575399 67.05477658 -14.19287109 63.99316406 C-14.20893402 62.73135315 -14.22499695 61.46954224 -14.24154663 60.16949463 C-14.25303482 58.78487827 -14.26364324 57.40025438 -14.2734375 56.015625 C-14.27876118 55.31886406 -14.28408485 54.62210312 -14.28956985 53.90422821 C-14.31629951 50.21448365 -14.33567277 46.52477285 -14.35009766 42.83496094 C-14.36342543 39.78517586 -14.39125476 36.73606173 -14.43212891 33.68652344 C-14.48152285 30.00126367 -14.50622695 26.31661149 -14.51332474 22.63103485 C-14.52002615 21.22921875 -14.53521966 19.82741561 -14.55921555 18.42578888 C-14.75842126 6.08325331 -14.75842126 6.08325331 -11.59228516 2.15527344 C-7.3292446 -1.38909669 -5.42490768 -1.12239469 0 0 Z " fill="#6DB33F" transform="translate(429,62)"/>
<path d="M0 0 C2.08984375 0.44921875 2.08984375 0.44921875 4.58984375 2.01171875 C6.59117787 5.26388669 7.02295471 7.63654374 7.08984375 11.44921875 C5.50145441 15.02309477 4.37350017 16.26011447 1.08984375 18.44921875 C-3.12193868 18.91719458 -5.19614739 18.9148767 -8.78515625 16.57421875 C-11.25728155 14.10209345 -11.81521604 13.14544695 -12.28515625 9.69921875 C-11.88404257 6.22290018 -10.99258381 4.18156867 -8.60546875 1.58984375 C-5.81577156 -0.28709537 -3.2822476 -0.24575897 0 0 Z " fill="#6DB33F" transform="translate(426.91015625,32.55078125)"/>
</svg>
